<svg width="82" height="82" viewBox="0 0 82 82" fill="none" xmlns="http://www.w3.org/2000/svg">
<rect width="82" height="82" rx="15" fill="#1F5444"/>
<g filter="url(#filter0_d_3_33)">
<path d="M15.3088 39.6881L23.284 23.5279C23.6026 22.8821 24.5806 23.2429 24.4036 23.9409L20.0152 41.2471C19.9796 41.3873 19.9959 41.5356 20.061 41.6647L22.3043 46.1143C22.3753 46.255 22.4987 46.3621 22.6479 46.4126L42.8796 53.2553C43.1991 53.3634 43.3668 53.7134 43.2508 54.0301L42.0677 57.2595C41.9568 57.5623 41.6264 57.7232 41.3196 57.624L19.7649 50.6483C19.5961 50.5937 19.4602 50.4672 19.3936 50.3028L15.2908 40.179C15.2265 40.0203 15.233 39.8417 15.3088 39.6881Z" fill="white"/>
<path d="M42.792 14.5956L59.8986 20.7389C60.5802 20.9837 60.3306 21.9943 59.6135 21.8932L41.1962 19.2972C41.0626 19.2783 40.9267 19.3046 40.8103 19.3717L36.1399 22.0631C36.0151 22.135 35.9206 22.2493 35.8739 22.3849L28.8691 42.7005C28.7694 42.9896 28.4658 43.1565 28.1655 43.0873L24.8062 42.3133C24.4607 42.2337 24.2577 41.8766 24.368 41.5425L31.4527 20.0841C31.5032 19.9312 31.6138 19.8052 31.7594 19.7347L42.3237 14.6201C42.4698 14.5494 42.6387 14.5405 42.792 14.5956Z" fill="white"/>
<path d="M67.9866 40.6972L60.1524 56.9238C59.8398 57.5715 58.8571 57.2192 59.0275 56.5205L63.2421 39.2396C63.2769 39.0967 63.2579 38.946 63.1886 38.8161L60.8448 34.4233C60.7706 34.2843 60.6447 34.1799 60.4942 34.1327L40.0896 27.7218C39.7674 27.6206 39.5917 27.2745 39.7007 26.9559L40.8119 23.7062C40.9161 23.4015 41.2432 23.2339 41.5525 23.3266L63.2842 29.8425C63.4544 29.8935 63.5933 30.017 63.6637 30.1798L67.9969 40.1998C68.0659 40.3594 68.0621 40.5408 67.9866 40.6972Z" fill="white"/>
<path d="M41.0614 66.3409L23.0751 61.1583C22.3756 60.9567 22.5632 59.929 23.2885 59.9898L42.5523 61.6062C42.6796 61.6169 42.8069 61.5873 42.9157 61.5216L47.5397 58.7303C47.663 58.6558 47.7549 58.5398 47.7987 58.4033L54.3513 37.9695C54.4445 37.6787 54.7446 37.5057 55.0467 37.5685L58.4266 38.2713C58.7742 38.3436 58.9854 38.6959 58.8826 39.0318L52.2758 60.6086C52.2287 60.7624 52.1208 60.8905 51.9767 60.964L41.5048 66.2989C41.3681 66.3686 41.2095 66.3836 41.0614 66.3409Z" fill="white"/>
</g>
<defs>
<filter id="filter0_d_3_33" x="10.2468" y="9.55984" width="62.7992" height="61.8049" filterUnits="userSpaceOnUse" color-interpolation-filters="sRGB">
<feFlood flood-opacity="0" result="BackgroundImageFix"/>
<feColorMatrix in="SourceAlpha" type="matrix" values="0 0 0 0 0 0 0 0 0 0 0 0 0 0 0 0 0 0 127 0" result="hardAlpha"/>
<feOffset/>
<feGaussianBlur stdDeviation="2.5"/>
<feComposite in2="hardAlpha" operator="out"/>
<feColorMatrix type="matrix" values="0 0 0 0 1 0 0 0 0 1 0 0 0 0 1 0 0 0 1 0"/>
<feBlend mode="normal" in2="BackgroundImageFix" result="effect1_dropShadow_3_33"/>
<feBlend mode="normal" in="SourceGraphic" in2="effect1_dropShadow_3_33" result="shape"/>
</filter>
</defs>
</svg>
