<svg width="300" height="400" viewBox="0 0 300 400" fill="none" xmlns="http://www.w3.org/2000/svg">
<rect width="300" height="400" fill="url(#paint0_linear_7_2)"/>
<path d="M49.389 195V178.75H44.371V175.63H57.891V178.75H52.951V195H49.389ZM64.1227 195.312C62.6667 195.312 61.3927 194.983 60.3007 194.324C59.2087 193.665 58.3594 192.773 57.7527 191.646C57.146 190.519 56.8427 189.271 56.8427 187.902C56.8427 186.481 57.146 185.224 57.7527 184.132C58.3767 183.023 59.2174 182.147 60.2747 181.506C61.3494 180.865 62.5454 180.544 63.8627 180.544C64.972 180.544 65.9427 180.726 66.7747 181.09C67.624 181.454 68.3434 181.957 68.9327 182.598C69.522 183.239 69.9727 183.976 70.2847 184.808C70.5967 185.623 70.7527 186.507 70.7527 187.46C70.7527 187.703 70.7354 187.954 70.7007 188.214C70.6834 188.474 70.64 188.699 70.5707 188.89H59.6507V186.29H68.6467L67.0347 187.512C67.1907 186.715 67.1474 186.004 66.9047 185.38C66.6794 184.756 66.298 184.262 65.7607 183.898C65.2407 183.534 64.608 183.352 63.8627 183.352C63.152 183.352 62.5194 183.534 61.9647 183.898C61.41 184.245 60.9854 184.765 60.6907 185.458C60.4134 186.134 60.3094 186.957 60.3787 187.928C60.3094 188.795 60.422 189.566 60.7167 190.242C61.0287 190.901 61.4794 191.412 62.0687 191.776C62.6754 192.14 63.3687 192.322 64.1487 192.322C64.9287 192.322 65.5874 192.157 66.1247 191.828C66.6794 191.499 67.1127 191.057 67.4247 190.502L70.1807 191.854C69.9034 192.53 69.47 193.128 68.8807 193.648C68.2914 194.168 67.5894 194.575 66.7747 194.87C65.9774 195.165 65.0934 195.312 64.1227 195.312ZM72.8146 195V180.856H76.0126V184.132L75.6486 183.586C75.9086 182.563 76.4286 181.801 77.2086 181.298C77.9886 180.795 78.9073 180.544 79.9646 180.544C81.126 180.544 82.1486 180.847 83.0326 181.454C83.9166 182.061 84.4886 182.858 84.7486 183.846L83.7866 183.924C84.22 182.797 84.87 181.957 85.7366 181.402C86.6033 180.83 87.6 180.544 88.7266 180.544C89.732 180.544 90.6246 180.769 91.4046 181.22C92.202 181.671 92.826 182.303 93.2766 183.118C93.7273 183.915 93.9526 184.843 93.9526 185.9V195H90.5466V186.706C90.5466 186.082 90.434 185.545 90.2086 185.094C89.9833 184.643 89.6713 184.297 89.2726 184.054C88.874 183.794 88.3886 183.664 87.8166 183.664C87.2793 183.664 86.8026 183.794 86.3866 184.054C85.9706 184.297 85.65 184.643 85.4246 185.094C85.1993 185.545 85.0866 186.082 85.0866 186.706V195H81.6806V186.706C81.6806 186.082 81.568 185.545 81.3426 185.094C81.1173 184.643 80.7966 184.297 80.3806 184.054C79.982 183.794 79.5053 183.664 78.9506 183.664C78.4133 183.664 77.9366 183.794 77.5206 184.054C77.1046 184.297 76.784 184.643 76.5586 185.094C76.3333 185.545 76.2206 186.082 76.2206 186.706V195H72.8146ZM96.3142 200.2V180.856H99.5122V183.664L99.2002 182.962C99.6855 182.199 100.344 181.61 101.176 181.194C102.008 180.761 102.97 180.544 104.062 180.544C105.397 180.544 106.601 180.873 107.676 181.532C108.751 182.191 109.6 183.075 110.224 184.184C110.865 185.293 111.186 186.541 111.186 187.928C111.186 189.297 110.874 190.545 110.25 191.672C109.626 192.799 108.777 193.691 107.702 194.35C106.627 194.991 105.405 195.312 104.036 195.312C103.013 195.312 102.069 195.113 101.202 194.714C100.353 194.298 99.6768 193.709 99.1742 192.946L99.7202 192.27V200.2H96.3142ZM103.646 192.192C104.426 192.192 105.119 192.01 105.726 191.646C106.333 191.282 106.801 190.779 107.13 190.138C107.477 189.497 107.65 188.76 107.65 187.928C107.65 187.096 107.477 186.368 107.13 185.744C106.801 185.103 106.333 184.6 105.726 184.236C105.119 183.855 104.426 183.664 103.646 183.664C102.901 183.664 102.225 183.846 101.618 184.21C101.029 184.574 100.561 185.085 100.214 185.744C99.8848 186.385 99.7202 187.113 99.7202 187.928C99.7202 188.76 99.8848 189.497 100.214 190.138C100.561 190.779 101.029 191.282 101.618 191.646C102.225 192.01 102.901 192.192 103.646 192.192ZM113.263 195V175.318H116.669V195H113.263ZM123.584 195.312C122.596 195.312 121.738 195.147 121.01 194.818C120.282 194.489 119.718 194.021 119.32 193.414C118.921 192.79 118.722 192.071 118.722 191.256C118.722 190.476 118.895 189.783 119.242 189.176C119.588 188.552 120.126 188.032 120.854 187.616C121.582 187.2 122.5 186.905 123.61 186.732L128.238 185.978V188.578L124.26 189.254C123.584 189.375 123.081 189.592 122.752 189.904C122.422 190.216 122.258 190.623 122.258 191.126C122.258 191.611 122.44 192.001 122.804 192.296C123.185 192.573 123.653 192.712 124.208 192.712C124.918 192.712 125.542 192.565 126.08 192.27C126.634 191.958 127.059 191.533 127.354 190.996C127.666 190.459 127.822 189.869 127.822 189.228V185.588C127.822 184.981 127.579 184.479 127.094 184.08C126.626 183.664 126.002 183.456 125.222 183.456C124.494 183.456 123.844 183.655 123.272 184.054C122.717 184.435 122.31 184.947 122.05 185.588L119.268 184.236C119.545 183.491 119.978 182.849 120.568 182.312C121.174 181.757 121.885 181.324 122.7 181.012C123.514 180.7 124.398 180.544 125.352 180.544C126.513 180.544 127.536 180.761 128.42 181.194C129.304 181.61 129.988 182.199 130.474 182.962C130.976 183.707 131.228 184.583 131.228 185.588V195H128.004V192.582L128.732 192.53C128.368 193.137 127.934 193.648 127.432 194.064C126.929 194.463 126.357 194.775 125.716 195C125.074 195.208 124.364 195.312 123.584 195.312ZM140.05 195.156C138.455 195.156 137.216 194.723 136.332 193.856C135.465 192.972 135.032 191.733 135.032 190.138V183.898H132.588V180.856H132.848C133.541 180.856 134.078 180.674 134.46 180.31C134.841 179.946 135.032 179.417 135.032 178.724V177.632H138.438V180.856H141.688V183.898H138.438V189.956C138.438 190.424 138.516 190.823 138.672 191.152C138.845 191.481 139.105 191.733 139.452 191.906C139.816 192.079 140.275 192.166 140.83 192.166C140.951 192.166 141.09 192.157 141.246 192.14C141.419 192.123 141.584 192.105 141.74 192.088V195C141.497 195.035 141.22 195.069 140.908 195.104C140.596 195.139 140.31 195.156 140.05 195.156ZM150.403 195.312C148.947 195.312 147.673 194.983 146.581 194.324C145.489 193.665 144.64 192.773 144.033 191.646C143.426 190.519 143.123 189.271 143.123 187.902C143.123 186.481 143.426 185.224 144.033 184.132C144.657 183.023 145.498 182.147 146.555 181.506C147.63 180.865 148.826 180.544 150.143 180.544C151.252 180.544 152.223 180.726 153.055 181.09C153.904 181.454 154.624 181.957 155.213 182.598C155.802 183.239 156.253 183.976 156.565 184.808C156.877 185.623 157.033 186.507 157.033 187.46C157.033 187.703 157.016 187.954 156.981 188.214C156.964 188.474 156.92 188.699 156.851 188.89H145.931V186.29H154.927L153.315 187.512C153.471 186.715 153.428 186.004 153.185 185.38C152.96 184.756 152.578 184.262 152.041 183.898C151.521 183.534 150.888 183.352 150.143 183.352C149.432 183.352 148.8 183.534 148.245 183.898C147.69 184.245 147.266 184.765 146.971 185.458C146.694 186.134 146.59 186.957 146.659 187.928C146.59 188.795 146.702 189.566 146.997 190.242C147.309 190.901 147.76 191.412 148.349 191.776C148.956 192.14 149.649 192.322 150.429 192.322C151.209 192.322 151.868 192.157 152.405 191.828C152.96 191.499 153.393 191.057 153.705 190.502L156.461 191.854C156.184 192.53 155.75 193.128 155.161 193.648C154.572 194.168 153.87 194.575 153.055 194.87C152.258 195.165 151.374 195.312 150.403 195.312ZM163.196 195V180.856H166.602V195H163.196ZM163.196 179.27V175.63H166.602V179.27H163.196ZM174.609 195.312C173.101 195.312 171.784 194.957 170.657 194.246C169.548 193.518 168.785 192.539 168.369 191.308L170.917 190.086C171.281 190.883 171.784 191.507 172.425 191.958C173.084 192.409 173.812 192.634 174.609 192.634C175.233 192.634 175.727 192.495 176.091 192.218C176.455 191.941 176.637 191.577 176.637 191.126C176.637 190.849 176.559 190.623 176.403 190.45C176.264 190.259 176.065 190.103 175.805 189.982C175.562 189.843 175.294 189.731 174.999 189.644L172.685 188.994C171.489 188.647 170.579 188.119 169.955 187.408C169.348 186.697 169.045 185.857 169.045 184.886C169.045 184.019 169.262 183.265 169.695 182.624C170.146 181.965 170.761 181.454 171.541 181.09C172.338 180.726 173.248 180.544 174.271 180.544C175.606 180.544 176.784 180.865 177.807 181.506C178.83 182.147 179.558 183.049 179.991 184.21L177.391 185.432C177.148 184.791 176.741 184.279 176.169 183.898C175.597 183.517 174.956 183.326 174.245 183.326C173.673 183.326 173.222 183.456 172.893 183.716C172.564 183.976 172.399 184.314 172.399 184.73C172.399 184.99 172.468 185.215 172.607 185.406C172.746 185.597 172.936 185.753 173.179 185.874C173.439 185.995 173.734 186.108 174.063 186.212L176.325 186.888C177.486 187.235 178.379 187.755 179.003 188.448C179.644 189.141 179.965 189.991 179.965 190.996C179.965 191.845 179.74 192.599 179.289 193.258C178.838 193.899 178.214 194.402 177.417 194.766C176.62 195.13 175.684 195.312 174.609 195.312ZM191.207 195.312C190.115 195.312 189.162 195.069 188.347 194.584C187.55 194.099 186.935 193.423 186.501 192.556C186.085 191.689 185.877 190.675 185.877 189.514V180.856H189.283V189.228C189.283 189.817 189.396 190.337 189.621 190.788C189.864 191.221 190.202 191.568 190.635 191.828C191.086 192.071 191.589 192.192 192.143 192.192C192.698 192.192 193.192 192.071 193.625 191.828C194.059 191.568 194.397 191.213 194.639 190.762C194.882 190.311 195.003 189.774 195.003 189.15V180.856H198.409V195H195.185V192.218L195.471 192.712C195.142 193.579 194.596 194.229 193.833 194.662C193.088 195.095 192.213 195.312 191.207 195.312ZM201.056 195V180.856H204.254V183.638L203.994 183.144C204.323 182.295 204.86 181.653 205.606 181.22C206.368 180.769 207.252 180.544 208.258 180.544C209.298 180.544 210.216 180.769 211.014 181.22C211.828 181.671 212.461 182.303 212.912 183.118C213.362 183.915 213.588 184.843 213.588 185.9V195H210.182V186.706C210.182 186.082 210.06 185.545 209.818 185.094C209.575 184.643 209.237 184.297 208.804 184.054C208.388 183.794 207.894 183.664 207.322 183.664C206.767 183.664 206.273 183.794 205.84 184.054C205.406 184.297 205.068 184.643 204.826 185.094C204.583 185.545 204.462 186.082 204.462 186.706V195H201.056ZM222.526 195.312C221.156 195.312 219.934 194.991 218.86 194.35C217.785 193.691 216.936 192.799 216.312 191.672C215.688 190.545 215.376 189.297 215.376 187.928C215.376 186.541 215.688 185.293 216.312 184.184C216.936 183.075 217.785 182.191 218.86 181.532C219.952 180.873 221.165 180.544 222.5 180.544C223.574 180.544 224.528 180.761 225.36 181.194C226.209 181.61 226.876 182.199 227.362 182.962L226.842 183.664V175.318H230.248V195H227.024V192.27L227.388 192.946C226.902 193.709 226.226 194.298 225.36 194.714C224.493 195.113 223.548 195.312 222.526 195.312ZM222.89 192.192C223.67 192.192 224.354 192.01 224.944 191.646C225.533 191.282 225.992 190.779 226.322 190.138C226.668 189.497 226.842 188.76 226.842 187.928C226.842 187.113 226.668 186.385 226.322 185.744C225.992 185.085 225.533 184.574 224.944 184.21C224.354 183.846 223.67 183.664 222.89 183.664C222.127 183.664 221.442 183.855 220.836 184.236C220.229 184.6 219.752 185.103 219.406 185.744C219.076 186.368 218.912 187.096 218.912 187.928C218.912 188.76 219.076 189.497 219.406 190.138C219.752 190.779 220.229 191.282 220.836 191.646C221.442 192.01 222.127 192.192 222.89 192.192ZM239.604 195.312C238.148 195.312 236.874 194.983 235.782 194.324C234.69 193.665 233.841 192.773 233.234 191.646C232.628 190.519 232.324 189.271 232.324 187.902C232.324 186.481 232.628 185.224 233.234 184.132C233.858 183.023 234.699 182.147 235.756 181.506C236.831 180.865 238.027 180.544 239.344 180.544C240.454 180.544 241.424 180.726 242.256 181.09C243.106 181.454 243.825 181.957 244.414 182.598C245.004 183.239 245.454 183.976 245.766 184.808C246.078 185.623 246.234 186.507 246.234 187.46C246.234 187.703 246.217 187.954 246.182 188.214C246.165 188.474 246.122 188.699 246.052 188.89H235.132V186.29H244.128L242.516 187.512C242.672 186.715 242.629 186.004 242.386 185.38C242.161 184.756 241.78 184.262 241.242 183.898C240.722 183.534 240.09 183.352 239.344 183.352C238.634 183.352 238.001 183.534 237.446 183.898C236.892 184.245 236.467 184.765 236.172 185.458C235.895 186.134 235.791 186.957 235.86 187.928C235.791 188.795 235.904 189.566 236.198 190.242C236.51 190.901 236.961 191.412 237.55 191.776C238.157 192.14 238.85 192.322 239.63 192.322C240.41 192.322 241.069 192.157 241.606 191.828C242.161 191.499 242.594 191.057 242.906 190.502L245.662 191.854C245.385 192.53 244.952 193.128 244.362 193.648C243.773 194.168 243.071 194.575 242.256 194.87C241.459 195.165 240.575 195.312 239.604 195.312ZM248.296 195V180.856H251.494V184.002L251.234 183.534C251.564 182.477 252.075 181.74 252.768 181.324C253.479 180.908 254.328 180.7 255.316 180.7H256.148V183.716H254.926C253.956 183.716 253.176 184.019 252.586 184.626C251.997 185.215 251.702 186.047 251.702 187.122V195H248.296ZM75.4118 225.312C74.0078 225.312 72.7425 224.991 71.6158 224.35C70.5065 223.691 69.6311 222.807 68.9898 221.698C68.3485 220.571 68.0278 219.306 68.0278 217.902C68.0278 216.498 68.3485 215.241 68.9898 214.132C69.6311 213.023 70.5065 212.147 71.6158 211.506C72.7425 210.865 74.0078 210.544 75.4118 210.544C76.4171 210.544 77.3531 210.726 78.2198 211.09C79.0865 211.437 79.8318 211.922 80.4558 212.546C81.0971 213.153 81.5565 213.881 81.8338 214.73L78.8438 216.03C78.5838 215.319 78.1418 214.747 77.5178 214.314C76.9111 213.881 76.2091 213.664 75.4118 213.664C74.6665 213.664 73.9991 213.846 73.4098 214.21C72.8378 214.574 72.3871 215.077 72.0578 215.718C71.7285 216.359 71.5638 217.096 71.5638 217.928C71.5638 218.76 71.7285 219.497 72.0578 220.138C72.3871 220.779 72.8378 221.282 73.4098 221.646C73.9991 222.01 74.6665 222.192 75.4118 222.192C76.2265 222.192 76.9371 221.975 77.5438 221.542C78.1505 221.109 78.5838 220.528 78.8438 219.8L81.8338 221.152C81.5565 221.949 81.1058 222.669 80.4818 223.31C79.8578 223.934 79.1125 224.428 78.2458 224.792C77.3791 225.139 76.4345 225.312 75.4118 225.312ZM90.8141 225.312C89.4275 225.312 88.1621 224.991 87.0181 224.35C85.8915 223.709 84.9901 222.833 84.3141 221.724C83.6555 220.615 83.3261 219.349 83.3261 217.928C83.3261 216.507 83.6555 215.241 84.3141 214.132C84.9901 213.023 85.8915 212.147 87.0181 211.506C88.1448 210.865 89.4101 210.544 90.8141 210.544C92.2008 210.544 93.4575 210.865 94.5841 211.506C95.7108 212.147 96.6035 213.023 97.2621 214.132C97.9381 215.224 98.2761 216.489 98.2761 217.928C98.2761 219.349 97.9381 220.615 97.2621 221.724C96.5861 222.833 95.6848 223.709 94.5581 224.35C93.4315 224.991 92.1835 225.312 90.8141 225.312ZM90.8141 222.192C91.5768 222.192 92.2441 222.01 92.8161 221.646C93.4055 221.282 93.8648 220.779 94.1941 220.138C94.5408 219.479 94.7141 218.743 94.7141 217.928C94.7141 217.096 94.5408 216.368 94.1941 215.744C93.8648 215.103 93.4055 214.6 92.8161 214.236C92.2441 213.855 91.5768 213.664 90.8141 213.664C90.0341 213.664 89.3495 213.855 88.7601 214.236C88.1708 214.6 87.7028 215.103 87.3561 215.744C87.0268 216.368 86.8621 217.096 86.8621 217.928C86.8621 218.743 87.0268 219.479 87.3561 220.138C87.7028 220.779 88.1708 221.282 88.7601 221.646C89.3495 222.01 90.0341 222.192 90.8141 222.192ZM100.339 225V210.856H103.537V213.638L103.277 213.144C103.606 212.295 104.144 211.653 104.889 211.22C105.652 210.769 106.536 210.544 107.541 210.544C108.581 210.544 109.5 210.769 110.297 211.22C111.112 211.671 111.744 212.303 112.195 213.118C112.646 213.915 112.871 214.843 112.871 215.9V225H109.465V216.706C109.465 216.082 109.344 215.545 109.101 215.094C108.858 214.643 108.52 214.297 108.087 214.054C107.671 213.794 107.177 213.664 106.605 213.664C106.05 213.664 105.556 213.794 105.123 214.054C104.69 214.297 104.352 214.643 104.109 215.094C103.866 215.545 103.745 216.082 103.745 216.706V225H100.339ZM120.613 225.312C119.105 225.312 117.788 224.957 116.661 224.246C115.552 223.518 114.789 222.539 114.373 221.308L116.921 220.086C117.285 220.883 117.788 221.507 118.429 221.958C119.088 222.409 119.816 222.634 120.613 222.634C121.237 222.634 121.731 222.495 122.095 222.218C122.459 221.941 122.641 221.577 122.641 221.126C122.641 220.849 122.563 220.623 122.407 220.45C122.269 220.259 122.069 220.103 121.809 219.982C121.567 219.843 121.298 219.731 121.003 219.644L118.689 218.994C117.493 218.647 116.583 218.119 115.959 217.408C115.353 216.697 115.049 215.857 115.049 214.886C115.049 214.019 115.266 213.265 115.699 212.624C116.15 211.965 116.765 211.454 117.545 211.09C118.343 210.726 119.253 210.544 120.275 210.544C121.61 210.544 122.789 210.865 123.811 211.506C124.834 212.147 125.562 213.049 125.995 214.21L123.395 215.432C123.153 214.791 122.745 214.279 122.173 213.898C121.601 213.517 120.96 213.326 120.249 213.326C119.677 213.326 119.227 213.456 118.897 213.716C118.568 213.976 118.403 214.314 118.403 214.73C118.403 214.99 118.473 215.215 118.611 215.406C118.75 215.597 118.941 215.753 119.183 215.874C119.443 215.995 119.738 216.108 120.067 216.212L122.329 216.888C123.491 217.235 124.383 217.755 125.007 218.448C125.649 219.141 125.969 219.991 125.969 220.996C125.969 221.845 125.744 222.599 125.293 223.258C124.843 223.899 124.219 224.402 123.421 224.766C122.624 225.13 121.688 225.312 120.613 225.312ZM134.515 225.156C132.92 225.156 131.681 224.723 130.797 223.856C129.93 222.972 129.497 221.733 129.497 220.138V213.898H127.053V210.856H127.313C128.006 210.856 128.543 210.674 128.925 210.31C129.306 209.946 129.497 209.417 129.497 208.724V207.632H132.903V210.856H136.153V213.898H132.903V219.956C132.903 220.424 132.981 220.823 133.137 221.152C133.31 221.481 133.57 221.733 133.917 221.906C134.281 222.079 134.74 222.166 135.295 222.166C135.416 222.166 135.555 222.157 135.711 222.14C135.884 222.123 136.049 222.105 136.205 222.088V225C135.962 225.035 135.685 225.069 135.373 225.104C135.061 225.139 134.775 225.156 134.515 225.156ZM138.287 225V210.856H141.485V214.002L141.225 213.534C141.554 212.477 142.066 211.74 142.759 211.324C143.47 210.908 144.319 210.7 145.307 210.7H146.139V213.716H144.917C143.946 213.716 143.166 214.019 142.577 214.626C141.988 215.215 141.693 216.047 141.693 217.122V225H138.287ZM152.536 225.312C151.444 225.312 150.49 225.069 149.676 224.584C148.878 224.099 148.263 223.423 147.83 222.556C147.414 221.689 147.206 220.675 147.206 219.514V210.856H150.612V219.228C150.612 219.817 150.724 220.337 150.95 220.788C151.192 221.221 151.53 221.568 151.964 221.828C152.414 222.071 152.917 222.192 153.472 222.192C154.026 222.192 154.52 222.071 154.954 221.828C155.387 221.568 155.725 221.213 155.968 220.762C156.21 220.311 156.332 219.774 156.332 219.15V210.856H159.738V225H156.514V222.218L156.8 222.712C156.47 223.579 155.924 224.229 155.162 224.662C154.416 225.095 153.541 225.312 152.536 225.312ZM169.196 225.312C167.792 225.312 166.526 224.991 165.4 224.35C164.29 223.691 163.415 222.807 162.774 221.698C162.132 220.571 161.812 219.306 161.812 217.902C161.812 216.498 162.132 215.241 162.774 214.132C163.415 213.023 164.29 212.147 165.4 211.506C166.526 210.865 167.792 210.544 169.196 210.544C170.201 210.544 171.137 210.726 172.004 211.09C172.87 211.437 173.616 211.922 174.24 212.546C174.881 213.153 175.34 213.881 175.618 214.73L172.628 216.03C172.368 215.319 171.926 214.747 171.302 214.314C170.695 213.881 169.993 213.664 169.196 213.664C168.45 213.664 167.783 213.846 167.194 214.21C166.622 214.574 166.171 215.077 165.842 215.718C165.512 216.359 165.348 217.096 165.348 217.928C165.348 218.76 165.512 219.497 165.842 220.138C166.171 220.779 166.622 221.282 167.194 221.646C167.783 222.01 168.45 222.192 169.196 222.192C170.01 222.192 170.721 221.975 171.328 221.542C171.934 221.109 172.368 220.528 172.628 219.8L175.618 221.152C175.34 221.949 174.89 222.669 174.266 223.31C173.642 223.934 172.896 224.428 172.03 224.792C171.163 225.139 170.218 225.312 169.196 225.312ZM184.13 225.156C182.535 225.156 181.296 224.723 180.412 223.856C179.545 222.972 179.112 221.733 179.112 220.138V213.898H176.668V210.856H176.928C177.621 210.856 178.159 210.674 178.54 210.31C178.921 209.946 179.112 209.417 179.112 208.724V207.632H182.518V210.856H185.768V213.898H182.518V219.956C182.518 220.424 182.596 220.823 182.752 221.152C182.925 221.481 183.185 221.733 183.532 221.906C183.896 222.079 184.355 222.166 184.91 222.166C185.031 222.166 185.17 222.157 185.326 222.14C185.499 222.123 185.664 222.105 185.82 222.088V225C185.577 225.035 185.3 225.069 184.988 225.104C184.676 225.139 184.39 225.156 184.13 225.156ZM187.902 225V210.856H191.308V225H187.902ZM187.902 209.27V205.63H191.308V209.27H187.902ZM200.849 225.312C199.462 225.312 198.197 224.991 197.053 224.35C195.926 223.709 195.025 222.833 194.349 221.724C193.69 220.615 193.361 219.349 193.361 217.928C193.361 216.507 193.69 215.241 194.349 214.132C195.025 213.023 195.926 212.147 197.053 211.506C198.18 210.865 199.445 210.544 200.849 210.544C202.236 210.544 203.492 210.865 204.619 211.506C205.746 212.147 206.638 213.023 207.297 214.132C207.973 215.224 208.311 216.489 208.311 217.928C208.311 219.349 207.973 220.615 207.297 221.724C206.621 222.833 205.72 223.709 204.593 224.35C203.466 224.991 202.218 225.312 200.849 225.312ZM200.849 222.192C201.612 222.192 202.279 222.01 202.851 221.646C203.44 221.282 203.9 220.779 204.229 220.138C204.576 219.479 204.749 218.743 204.749 217.928C204.749 217.096 204.576 216.368 204.229 215.744C203.9 215.103 203.44 214.6 202.851 214.236C202.279 213.855 201.612 213.664 200.849 213.664C200.069 213.664 199.384 213.855 198.795 214.236C198.206 214.6 197.738 215.103 197.391 215.744C197.062 216.368 196.897 217.096 196.897 217.928C196.897 218.743 197.062 219.479 197.391 220.138C197.738 220.779 198.206 221.282 198.795 221.646C199.384 222.01 200.069 222.192 200.849 222.192ZM210.374 225V210.856H213.572V213.638L213.312 213.144C213.641 212.295 214.179 211.653 214.924 211.22C215.687 210.769 216.571 210.544 217.576 210.544C218.616 210.544 219.535 210.769 220.332 211.22C221.147 211.671 221.779 212.303 222.23 213.118C222.681 213.915 222.906 214.843 222.906 215.9V225H219.5V216.706C219.5 216.082 219.379 215.545 219.136 215.094C218.893 214.643 218.555 214.297 218.122 214.054C217.706 213.794 217.212 213.664 216.64 213.664C216.085 213.664 215.591 213.794 215.158 214.054C214.725 214.297 214.387 214.643 214.144 215.094C213.901 215.545 213.78 216.082 213.78 216.706V225H210.374ZM226.878 225V221.36H230.31V225H226.878Z" fill="white"/>
<path d="M80.9524 260L81.9924 252.55H84.4324C84.8857 252.55 85.279 252.64 85.6124 252.82C85.9457 253 86.2024 253.253 86.3824 253.58C86.5624 253.9 86.6524 254.28 86.6524 254.72C86.6524 255.173 86.5424 255.58 86.3224 255.94C86.1024 256.3 85.7957 256.583 85.4024 256.79C85.0157 256.997 84.559 257.1 84.0324 257.1H82.1524L81.7524 260H80.9524ZM82.2624 256.35H84.0724C84.4257 256.35 84.7357 256.28 85.0024 256.14C85.269 255.993 85.4757 255.797 85.6224 255.55C85.7757 255.303 85.8524 255.02 85.8524 254.7C85.8524 254.26 85.719 253.917 85.4524 253.67C85.1924 253.423 84.839 253.3 84.3924 253.3H82.6924L82.2624 256.35ZM87.0584 260L87.8084 254.64H88.5684L88.4484 255.52L88.3484 255.39C88.5151 255.137 88.7351 254.937 89.0084 254.79C89.2884 254.643 89.6117 254.57 89.9784 254.57H90.3184L90.2084 255.32H89.7384C89.3517 255.32 89.0251 255.443 88.7584 255.69C88.4984 255.937 88.3317 256.307 88.2584 256.8L87.8184 260H87.0584ZM92.9773 260.12C92.4973 260.12 92.0606 260.01 91.6673 259.79C91.2806 259.563 90.9706 259.25 90.7373 258.85C90.5106 258.45 90.3973 257.99 90.3973 257.47C90.3973 257.063 90.4706 256.683 90.6173 256.33C90.764 255.97 90.9673 255.657 91.2273 255.39C91.494 255.117 91.8006 254.903 92.1473 254.75C92.5006 254.597 92.8773 254.52 93.2773 254.52C93.7706 254.52 94.2106 254.633 94.5973 254.86C94.9906 255.08 95.3006 255.387 95.5273 255.78C95.754 256.173 95.8673 256.627 95.8673 257.14C95.8673 257.547 95.7906 257.93 95.6373 258.29C95.4906 258.65 95.284 258.97 95.0173 259.25C94.7506 259.523 94.444 259.737 94.0973 259.89C93.7506 260.043 93.3773 260.12 92.9773 260.12ZM92.9673 259.37C93.3606 259.37 93.714 259.267 94.0273 259.06C94.3473 258.853 94.6006 258.58 94.7873 258.24C94.974 257.9 95.0673 257.53 95.0673 257.13C95.0673 256.77 94.9906 256.45 94.8373 256.17C94.684 255.89 94.4706 255.67 94.1973 255.51C93.9306 255.35 93.6273 255.27 93.2873 255.27C92.9006 255.27 92.5473 255.373 92.2273 255.58C91.914 255.78 91.664 256.047 91.4773 256.38C91.2906 256.713 91.1973 257.083 91.1973 257.49C91.1973 257.85 91.274 258.173 91.4273 258.46C91.5806 258.74 91.7906 258.963 92.0573 259.13C92.324 259.29 92.6273 259.37 92.9673 259.37ZM95.4093 262.2C95.356 262.2 95.2793 262.193 95.1793 262.18C95.0793 262.173 95.0027 262.163 94.9493 262.15L95.0093 261.47C95.0827 261.477 95.156 261.483 95.2293 261.49C95.296 261.497 95.356 261.5 95.4093 261.5C95.6893 261.5 95.9427 261.413 96.1693 261.24C96.3893 261.067 96.5227 260.813 96.5693 260.48L97.3893 254.64H98.1493L97.3193 260.52C97.266 260.887 97.146 261.193 96.9593 261.44C96.7793 261.693 96.5527 261.883 96.2793 262.01C96.0127 262.137 95.7227 262.2 95.4093 262.2ZM97.5293 253.65L97.6793 252.55H98.4393L98.2893 253.65H97.5293ZM101.394 260.12C100.914 260.12 100.487 260.01 100.114 259.79C99.7402 259.563 99.4436 259.253 99.2236 258.86C99.0102 258.467 98.9036 258.017 98.9036 257.51C98.9036 257.103 98.9702 256.72 99.1036 256.36C99.2436 256 99.4369 255.683 99.6836 255.41C99.9369 255.13 100.23 254.913 100.564 254.76C100.897 254.6 101.264 254.52 101.664 254.52C102.157 254.52 102.577 254.633 102.924 254.86C103.27 255.087 103.534 255.383 103.714 255.75C103.894 256.11 103.984 256.493 103.984 256.9C103.984 257.007 103.974 257.123 103.954 257.25C103.934 257.377 103.917 257.477 103.904 257.55H99.3736L99.4236 256.85H103.524L103.144 257.14C103.237 256.787 103.224 256.467 103.104 256.18C102.99 255.887 102.804 255.653 102.544 255.48C102.29 255.307 101.994 255.22 101.654 255.22C101.227 255.22 100.867 255.323 100.574 255.53C100.28 255.737 100.057 256.027 99.9036 256.4C99.7569 256.767 99.6836 257.193 99.6836 257.68C99.6836 258.033 99.7636 258.343 99.9236 258.61C100.084 258.87 100.294 259.07 100.554 259.21C100.814 259.35 101.097 259.42 101.404 259.42C101.797 259.42 102.134 259.327 102.414 259.14C102.7 258.947 102.937 258.71 103.124 258.43L103.754 258.79C103.627 259.03 103.447 259.253 103.214 259.46C102.98 259.66 102.707 259.82 102.394 259.94C102.087 260.06 101.754 260.12 101.394 260.12ZM107.325 260.12C106.845 260.12 106.419 260.007 106.045 259.78C105.679 259.553 105.392 259.243 105.185 258.85C104.979 258.457 104.875 258.01 104.875 257.51C104.875 257.09 104.945 256.7 105.085 256.34C105.232 255.973 105.432 255.653 105.685 255.38C105.945 255.107 106.245 254.897 106.585 254.75C106.932 254.597 107.302 254.52 107.695 254.52C108.042 254.52 108.359 254.58 108.645 254.7C108.939 254.813 109.192 254.973 109.405 255.18C109.619 255.387 109.775 255.627 109.875 255.9L109.185 256.23C109.072 255.943 108.885 255.713 108.625 255.54C108.365 255.36 108.059 255.27 107.705 255.27C107.312 255.27 106.962 255.377 106.655 255.59C106.349 255.797 106.109 256.07 105.935 256.41C105.762 256.75 105.675 257.117 105.675 257.51C105.675 257.87 105.749 258.19 105.895 258.47C106.042 258.75 106.245 258.97 106.505 259.13C106.765 259.29 107.059 259.37 107.385 259.37C107.745 259.37 108.069 259.28 108.355 259.1C108.642 258.913 108.865 258.67 109.025 258.37L109.685 258.76C109.545 259.027 109.355 259.263 109.115 259.47C108.882 259.67 108.612 259.83 108.305 259.95C107.999 260.063 107.672 260.12 107.325 260.12ZM112.718 260.06C112.232 260.06 111.875 259.917 111.648 259.63C111.422 259.343 111.342 258.94 111.408 258.42L111.828 255.39H110.838L110.948 254.64H111.178C111.405 254.64 111.598 254.563 111.758 254.41C111.925 254.25 112.022 254.057 112.048 253.83L112.108 253.4H112.868L112.698 254.64H113.868L113.758 255.39H112.588L112.158 258.46C112.132 258.64 112.132 258.8 112.158 258.94C112.192 259.073 112.265 259.177 112.378 259.25C112.492 259.323 112.655 259.36 112.868 259.36C112.935 259.36 113.005 259.357 113.078 259.35C113.152 259.343 113.215 259.337 113.268 259.33L113.208 260.02C113.128 260.04 113.038 260.05 112.938 260.05C112.845 260.057 112.772 260.06 112.718 260.06ZM118.714 260.12C118.248 260.12 117.821 260.013 117.434 259.8C117.054 259.58 116.778 259.28 116.604 258.9L116.754 258.8L116.594 260H115.834L116.894 252.43H117.654L117.174 255.84L116.924 255.62C117.158 255.28 117.458 255.013 117.824 254.82C118.198 254.62 118.611 254.52 119.064 254.52C119.564 254.52 120.001 254.637 120.374 254.87C120.748 255.097 121.034 255.407 121.234 255.8C121.441 256.187 121.544 256.623 121.544 257.11C121.544 257.517 121.474 257.903 121.334 258.27C121.194 258.63 120.994 258.95 120.734 259.23C120.481 259.51 120.181 259.73 119.834 259.89C119.494 260.043 119.121 260.12 118.714 260.12ZM118.694 259.37C119.088 259.37 119.438 259.267 119.744 259.06C120.051 258.853 120.294 258.58 120.474 258.24C120.654 257.9 120.744 257.53 120.744 257.13C120.744 256.77 120.668 256.45 120.514 256.17C120.368 255.89 120.161 255.67 119.894 255.51C119.634 255.35 119.328 255.27 118.974 255.27C118.581 255.27 118.228 255.373 117.914 255.58C117.608 255.78 117.368 256.047 117.194 256.38C117.021 256.713 116.934 257.077 116.934 257.47C116.934 257.837 117.011 258.163 117.164 258.45C117.318 258.737 117.524 258.963 117.784 259.13C118.051 259.29 118.354 259.37 118.694 259.37ZM124.214 260.12C123.834 260.12 123.501 260.03 123.214 259.85C122.928 259.663 122.718 259.403 122.584 259.07C122.451 258.737 122.414 258.347 122.474 257.9L122.934 254.64H123.684L123.214 257.95C123.174 258.237 123.198 258.487 123.284 258.7C123.371 258.913 123.508 259.08 123.694 259.2C123.881 259.313 124.108 259.37 124.374 259.37C124.654 259.37 124.911 259.307 125.144 259.18C125.378 259.053 125.571 258.873 125.724 258.64C125.884 258.407 125.988 258.13 126.034 257.81L126.484 254.64H127.234L126.484 260H125.734L125.874 258.96L126.044 259.02C125.864 259.367 125.611 259.637 125.284 259.83C124.964 260.023 124.608 260.12 124.214 260.12ZM127.837 260L128.587 254.64H129.347L128.597 260H127.837ZM128.727 253.65L128.877 252.55H129.637L129.487 253.65H128.727ZM129.951 260L131.011 252.43H131.771L130.711 260H129.951ZM134.145 260.06C133.659 260.06 133.302 259.917 133.075 259.63C132.849 259.343 132.769 258.94 132.835 258.42L133.255 255.39H132.265L132.375 254.64H132.605C132.832 254.64 133.025 254.563 133.185 254.41C133.352 254.25 133.449 254.057 133.475 253.83L133.535 253.4H134.295L134.125 254.64H135.295L135.185 255.39H134.015L133.585 258.46C133.559 258.64 133.559 258.8 133.585 258.94C133.619 259.073 133.692 259.177 133.805 259.25C133.919 259.323 134.082 259.36 134.295 259.36C134.362 259.36 134.432 259.357 134.505 259.35C134.579 259.343 134.642 259.337 134.695 259.33L134.635 260.02C134.555 260.04 134.465 260.05 134.365 260.05C134.272 260.057 134.199 260.06 134.145 260.06ZM140.141 260.12C139.674 260.12 139.248 260.013 138.861 259.8C138.481 259.58 138.204 259.28 138.031 258.9L138.181 258.8L138.021 260H137.261L138.321 252.43H139.081L138.601 255.84L138.351 255.62C138.584 255.28 138.884 255.013 139.251 254.82C139.624 254.62 140.038 254.52 140.491 254.52C140.991 254.52 141.428 254.637 141.801 254.87C142.174 255.097 142.461 255.407 142.661 255.8C142.868 256.187 142.971 256.623 142.971 257.11C142.971 257.517 142.901 257.903 142.761 258.27C142.621 258.63 142.421 258.95 142.161 259.23C141.908 259.51 141.608 259.73 141.261 259.89C140.921 260.043 140.548 260.12 140.141 260.12ZM140.121 259.37C140.514 259.37 140.864 259.267 141.171 259.06C141.478 258.853 141.721 258.58 141.901 258.24C142.081 257.9 142.171 257.53 142.171 257.13C142.171 256.77 142.094 256.45 141.941 256.17C141.794 255.89 141.588 255.67 141.321 255.51C141.061 255.35 140.754 255.27 140.401 255.27C140.008 255.27 139.654 255.373 139.341 255.58C139.034 255.78 138.794 256.047 138.621 256.38C138.448 256.713 138.361 257.077 138.361 257.47C138.361 257.837 138.438 258.163 138.591 258.45C138.744 258.737 138.951 258.963 139.211 259.13C139.478 259.29 139.781 259.37 140.121 259.37ZM143.356 262.2C143.243 262.2 143.129 262.19 143.016 262.17C142.903 262.15 142.796 262.12 142.696 262.08L142.756 261.39C142.823 261.397 142.906 261.407 143.006 261.42C143.099 261.44 143.196 261.45 143.296 261.45C143.523 261.45 143.713 261.417 143.866 261.35C144.026 261.29 144.173 261.187 144.306 261.04C144.439 260.893 144.579 260.693 144.726 260.44L145.186 259.66L145.086 260.32L143.616 254.63H144.406L145.596 259.33H145.346L147.906 254.63H148.756L145.456 260.7C145.316 260.96 145.146 261.203 144.946 261.43C144.753 261.663 144.526 261.85 144.266 261.99C144.006 262.13 143.703 262.2 143.356 262.2ZM149.637 260L149.717 259.35L153.527 255.12L153.647 255.39H150.447L150.557 254.64H154.417L154.337 255.29L150.537 259.52L150.417 259.25H153.787L153.687 260H149.637ZM156.178 260.12C155.885 260.12 155.608 260.067 155.348 259.96C155.088 259.853 154.875 259.693 154.708 259.48C154.548 259.26 154.468 258.987 154.468 258.66C154.468 258.36 154.542 258.09 154.688 257.85C154.842 257.61 155.058 257.41 155.338 257.25C155.618 257.09 155.955 256.98 156.348 256.92L158.498 256.57L158.428 257.25L156.488 257.57C156.108 257.637 155.808 257.763 155.588 257.95C155.375 258.13 155.268 258.353 155.268 258.62C155.268 258.867 155.358 259.067 155.538 259.22C155.725 259.367 155.972 259.44 156.278 259.44C156.612 259.44 156.918 259.36 157.198 259.2C157.478 259.04 157.712 258.827 157.898 258.56C158.085 258.287 158.198 257.987 158.238 257.66L158.408 256.41C158.448 256.143 158.415 255.923 158.308 255.75C158.202 255.577 158.052 255.45 157.858 255.37C157.672 255.283 157.468 255.24 157.248 255.24C156.908 255.24 156.605 255.327 156.338 255.5C156.078 255.667 155.872 255.88 155.718 256.14L155.068 255.73C155.195 255.503 155.368 255.3 155.588 255.12C155.815 254.933 156.075 254.787 156.368 254.68C156.662 254.573 156.972 254.52 157.298 254.52C157.685 254.52 158.028 254.603 158.328 254.77C158.628 254.93 158.855 255.153 159.008 255.44C159.168 255.727 159.222 256.06 159.168 256.44L158.668 260H157.908L158.058 258.93L158.188 259.06C158.068 259.267 157.905 259.45 157.698 259.61C157.492 259.77 157.258 259.897 156.998 259.99C156.738 260.077 156.465 260.12 156.178 260.12ZM162.631 260.12C162.151 260.12 161.724 260.007 161.351 259.78C160.984 259.553 160.698 259.243 160.491 258.85C160.284 258.457 160.181 258.01 160.181 257.51C160.181 257.09 160.251 256.7 160.391 256.34C160.538 255.973 160.738 255.653 160.991 255.38C161.251 255.107 161.551 254.897 161.891 254.75C162.238 254.597 162.608 254.52 163.001 254.52C163.348 254.52 163.664 254.58 163.951 254.7C164.244 254.813 164.498 254.973 164.711 255.18C164.924 255.387 165.081 255.627 165.181 255.9L164.491 256.23C164.378 255.943 164.191 255.713 163.931 255.54C163.671 255.36 163.364 255.27 163.011 255.27C162.618 255.27 162.268 255.377 161.961 255.59C161.654 255.797 161.414 256.07 161.241 256.41C161.068 256.75 160.981 257.117 160.981 257.51C160.981 257.87 161.054 258.19 161.201 258.47C161.348 258.75 161.551 258.97 161.811 259.13C162.071 259.29 162.364 259.37 162.691 259.37C163.051 259.37 163.374 259.28 163.661 259.1C163.948 258.913 164.171 258.67 164.331 258.37L164.991 258.76C164.851 259.027 164.661 259.263 164.421 259.47C164.188 259.67 163.918 259.83 163.611 259.95C163.304 260.063 162.978 260.12 162.631 260.12ZM165.934 260L166.994 252.43H167.754L167.014 257.73L166.634 257.68L170.064 254.64H171.104L168.694 256.79L170.524 260H169.674L167.944 257.03L168.384 257.07L166.624 258.65L166.964 258.03L166.694 260H165.934ZM171.043 262.2C170.929 262.2 170.816 262.19 170.703 262.17C170.589 262.15 170.483 262.12 170.383 262.08L170.443 261.39C170.509 261.397 170.593 261.407 170.693 261.42C170.786 261.44 170.883 261.45 170.983 261.45C171.209 261.45 171.399 261.417 171.553 261.35C171.713 261.29 171.859 261.187 171.993 261.04C172.126 260.893 172.266 260.693 172.413 260.44L172.873 259.66L172.773 260.32L171.303 254.63H172.093L173.283 259.33H173.033L175.593 254.63H176.443L173.143 260.7C173.003 260.96 172.833 261.203 172.633 261.43C172.439 261.663 172.213 261.85 171.953 261.99C171.693 262.13 171.389 262.2 171.043 262.2ZM177.873 260L178.623 254.64H179.383L179.263 255.52L179.163 255.39C179.33 255.137 179.55 254.937 179.823 254.79C180.103 254.643 180.427 254.57 180.793 254.57H181.133L181.023 255.32H180.553C180.167 255.32 179.84 255.443 179.573 255.69C179.313 255.937 179.147 256.307 179.073 256.8L178.633 260H177.873ZM182.742 260.12C182.449 260.12 182.172 260.067 181.912 259.96C181.652 259.853 181.439 259.693 181.272 259.48C181.112 259.26 181.032 258.987 181.032 258.66C181.032 258.36 181.105 258.09 181.252 257.85C181.405 257.61 181.622 257.41 181.902 257.25C182.182 257.09 182.519 256.98 182.912 256.92L185.062 256.57L184.992 257.25L183.052 257.57C182.672 257.637 182.372 257.763 182.152 257.95C181.939 258.13 181.832 258.353 181.832 258.62C181.832 258.867 181.922 259.067 182.102 259.22C182.289 259.367 182.535 259.44 182.842 259.44C183.175 259.44 183.482 259.36 183.762 259.2C184.042 259.04 184.275 258.827 184.462 258.56C184.649 258.287 184.762 257.987 184.802 257.66L184.972 256.41C185.012 256.143 184.979 255.923 184.872 255.75C184.765 255.577 184.615 255.45 184.422 255.37C184.235 255.283 184.032 255.24 183.812 255.24C183.472 255.24 183.169 255.327 182.902 255.5C182.642 255.667 182.435 255.88 182.282 256.14L181.632 255.73C181.759 255.503 181.932 255.3 182.152 255.12C182.379 254.933 182.639 254.787 182.932 254.68C183.225 254.573 183.535 254.52 183.862 254.52C184.249 254.52 184.592 254.603 184.892 254.77C185.192 254.93 185.419 255.153 185.572 255.44C185.732 255.727 185.785 256.06 185.732 256.44L185.232 260H184.472L184.622 258.93L184.752 259.06C184.632 259.267 184.469 259.45 184.262 259.61C184.055 259.77 183.822 259.897 183.562 259.99C183.302 260.077 183.029 260.12 182.742 260.12ZM189.235 260.12C188.755 260.12 188.328 260.01 187.955 259.79C187.581 259.563 187.285 259.253 187.065 258.86C186.851 258.467 186.745 258.017 186.745 257.51C186.745 257.103 186.811 256.72 186.945 256.36C187.085 256 187.278 255.683 187.525 255.41C187.778 255.13 188.071 254.913 188.405 254.76C188.738 254.6 189.105 254.52 189.505 254.52C189.998 254.52 190.418 254.633 190.765 254.86C191.111 255.087 191.375 255.383 191.555 255.75C191.735 256.11 191.825 256.493 191.825 256.9C191.825 257.007 191.815 257.123 191.795 257.25C191.775 257.377 191.758 257.477 191.745 257.55H187.215L187.265 256.85H191.365L190.985 257.14C191.078 256.787 191.065 256.467 190.945 256.18C190.831 255.887 190.645 255.653 190.385 255.48C190.131 255.307 189.835 255.22 189.495 255.22C189.068 255.22 188.708 255.323 188.415 255.53C188.121 255.737 187.898 256.027 187.745 256.4C187.598 256.767 187.525 257.193 187.525 257.68C187.525 258.033 187.605 258.343 187.765 258.61C187.925 258.87 188.135 259.07 188.395 259.21C188.655 259.35 188.938 259.42 189.245 259.42C189.638 259.42 189.975 259.327 190.255 259.14C190.541 258.947 190.778 258.71 190.965 258.43L191.595 258.79C191.468 259.03 191.288 259.253 191.055 259.46C190.821 259.66 190.548 259.82 190.235 259.94C189.928 260.06 189.595 260.12 189.235 260.12ZM195.166 260.12C194.686 260.12 194.26 260.007 193.886 259.78C193.52 259.553 193.233 259.243 193.026 258.85C192.82 258.457 192.716 258.01 192.716 257.51C192.716 257.09 192.786 256.7 192.926 256.34C193.073 255.973 193.273 255.653 193.526 255.38C193.786 255.107 194.086 254.897 194.426 254.75C194.773 254.597 195.143 254.52 195.536 254.52C195.883 254.52 196.2 254.58 196.486 254.7C196.78 254.813 197.033 254.973 197.246 255.18C197.46 255.387 197.616 255.627 197.716 255.9L197.026 256.23C196.913 255.943 196.726 255.713 196.466 255.54C196.206 255.36 195.9 255.27 195.546 255.27C195.153 255.27 194.803 255.377 194.496 255.59C194.19 255.797 193.95 256.07 193.776 256.41C193.603 256.75 193.516 257.117 193.516 257.51C193.516 257.87 193.59 258.19 193.736 258.47C193.883 258.75 194.086 258.97 194.346 259.13C194.606 259.29 194.9 259.37 195.226 259.37C195.586 259.37 195.91 259.28 196.196 259.1C196.483 258.913 196.706 258.67 196.866 258.37L197.526 258.76C197.386 259.027 197.196 259.263 196.956 259.47C196.723 259.67 196.453 259.83 196.146 259.95C195.84 260.063 195.513 260.12 195.166 260.12ZM198.479 260L199.539 252.43H200.289L199.839 255.68L199.669 255.62C199.843 255.273 200.093 255.003 200.419 254.81C200.753 254.617 201.113 254.52 201.499 254.52C201.886 254.52 202.219 254.61 202.499 254.79C202.786 254.97 202.996 255.22 203.129 255.54C203.269 255.86 203.309 256.227 203.249 256.64L202.779 260H202.019L202.479 256.69C202.539 256.257 202.463 255.913 202.249 255.66C202.036 255.4 201.733 255.27 201.339 255.27C201.066 255.27 200.809 255.333 200.569 255.46C200.336 255.587 200.139 255.767 199.979 256C199.826 256.233 199.726 256.51 199.679 256.83L199.239 260H198.479ZM205.712 260.12C205.418 260.12 205.142 260.067 204.882 259.96C204.622 259.853 204.408 259.693 204.242 259.48C204.082 259.26 204.002 258.987 204.002 258.66C204.002 258.36 204.075 258.09 204.222 257.85C204.375 257.61 204.592 257.41 204.872 257.25C205.152 257.09 205.488 256.98 205.882 256.92L208.032 256.57L207.962 257.25L206.022 257.57C205.642 257.637 205.342 257.763 205.122 257.95C204.908 258.13 204.802 258.353 204.802 258.62C204.802 258.867 204.892 259.067 205.072 259.22C205.258 259.367 205.505 259.44 205.812 259.44C206.145 259.44 206.452 259.36 206.732 259.2C207.012 259.04 207.245 258.827 207.432 258.56C207.618 258.287 207.732 257.987 207.772 257.66L207.942 256.41C207.982 256.143 207.948 255.923 207.842 255.75C207.735 255.577 207.585 255.45 207.392 255.37C207.205 255.283 207.002 255.24 206.782 255.24C206.442 255.24 206.138 255.327 205.872 255.5C205.612 255.667 205.405 255.88 205.252 256.14L204.602 255.73C204.728 255.503 204.902 255.3 205.122 255.12C205.348 254.933 205.608 254.787 205.902 254.68C206.195 254.573 206.505 254.52 206.832 254.52C207.218 254.52 207.562 254.603 207.862 254.77C208.162 254.93 208.388 255.153 208.542 255.44C208.702 255.727 208.755 256.06 208.702 256.44L208.202 260H207.442L207.592 258.93L207.722 259.06C207.602 259.267 207.438 259.45 207.232 259.61C207.025 259.77 206.792 259.897 206.532 259.99C206.272 260.077 205.998 260.12 205.712 260.12ZM209.554 260L210.304 254.64H211.054L210.914 255.68L210.744 255.62C210.917 255.273 211.167 255.003 211.494 254.81C211.827 254.617 212.187 254.52 212.574 254.52C212.961 254.52 213.294 254.61 213.574 254.79C213.861 254.97 214.071 255.22 214.204 255.54C214.344 255.86 214.384 256.227 214.324 256.64L213.854 260H213.104L213.564 256.69C213.624 256.257 213.547 255.913 213.334 255.66C213.121 255.4 212.814 255.27 212.414 255.27C212.134 255.27 211.874 255.333 211.634 255.46C211.401 255.587 211.204 255.767 211.044 256C210.891 256.233 210.791 256.51 210.744 256.83L210.304 260H209.554ZM215.346 260L215.506 258.9H216.306L216.146 260H215.346Z" fill="white"/>
<g opacity="0.67">
<path d="M133.383 133.754L137.423 125.567C137.742 124.921 138.72 125.282 138.543 125.98L136.321 134.744C136.285 134.884 136.301 135.032 136.366 135.162L137.7 137.806C137.771 137.947 137.894 138.054 138.043 138.104L150.472 142.308C150.791 142.416 150.959 142.766 150.843 143.082L150.25 144.699C150.139 145.002 149.809 145.163 149.502 145.064L136.241 140.772C136.073 140.718 135.937 140.591 135.87 140.427L133.365 134.245C133.301 134.086 133.307 133.908 133.383 133.754Z" fill="white"/>
<path d="M150.721 118.086L159.367 121.191C160.048 121.436 159.799 122.446 159.082 122.345L149.705 121.023C149.571 121.004 149.435 121.031 149.319 121.098L146.518 122.712C146.393 122.784 146.299 122.898 146.252 123.033L141.936 135.551C141.837 135.84 141.533 136.007 141.233 135.937L139.554 135.55C139.208 135.471 139.005 135.114 139.115 134.78L143.468 121.596C143.518 121.443 143.629 121.317 143.775 121.247L150.253 118.111C150.399 118.04 150.568 118.031 150.721 118.086Z" fill="white"/>
<path d="M166.442 134.57L162.473 142.791C162.161 143.438 161.178 143.086 161.348 142.387L163.481 133.644C163.516 133.501 163.497 133.35 163.427 133.22L162.035 130.611C161.961 130.472 161.835 130.368 161.685 130.32L149.15 126.382C148.828 126.281 148.652 125.935 148.761 125.616L149.317 123.989C149.422 123.685 149.749 123.517 150.058 123.61L163.428 127.618C163.598 127.669 163.737 127.793 163.807 127.956L166.452 134.072C166.521 134.232 166.518 134.413 166.442 134.57Z" fill="white"/>
<path d="M149.458 150.59L140.379 147.974C139.68 147.773 139.868 146.745 140.593 146.806L150.409 147.629C150.536 147.64 150.664 147.61 150.773 147.545L153.549 145.869C153.673 145.794 153.764 145.678 153.808 145.542L157.845 132.952C157.939 132.661 158.239 132.488 158.541 132.551L160.231 132.902C160.578 132.974 160.789 133.327 160.687 133.663L156.628 146.919C156.58 147.072 156.473 147.2 156.328 147.274L149.902 150.548C149.765 150.618 149.606 150.633 149.458 150.59Z" fill="white"/>
</g>
<defs>
<linearGradient id="paint0_linear_7_2" x1="-491" y1="-287" x2="719.5" y2="911" gradientUnits="userSpaceOnUse">
<stop stop-color="#4CC8A3"/>
<stop offset="0.465765" stop-color="#1F5444"/>
<stop offset="1" stop-color="#4CC8A3"/>
</linearGradient>
</defs>
</svg>
