<svg width="228" height="82" viewBox="0 0 228 82" fill="none" xmlns="http://www.w3.org/2000/svg">
<rect width="228" height="82" fill="#1F5444"/>
<path d="M98.66 53.36C97.06 53.36 95.58 53.07 94.22 52.49C92.88 51.91 91.7 51.1 90.68 50.06C89.68 49.02 88.9 47.8 88.34 46.4C87.78 45 87.5 43.47 87.5 41.81C87.5 40.15 87.77 38.62 88.31 37.22C88.87 35.8 89.65 34.58 90.65 33.56C91.67 32.52 92.86 31.72 94.22 31.16C95.58 30.58 97.06 30.29 98.66 30.29C100.26 30.29 101.69 30.56 102.95 31.1C104.23 31.64 105.31 32.36 106.19 33.26C107.07 34.14 107.7 35.11 108.08 36.17L104.42 37.88C104 36.76 103.29 35.84 102.29 35.12C101.29 34.38 100.08 34.01 98.66 34.01C97.26 34.01 96.02 34.34 94.94 35C93.88 35.66 93.05 36.57 92.45 37.73C91.87 38.89 91.58 40.25 91.58 41.81C91.58 43.37 91.87 44.74 92.45 45.92C93.05 47.08 93.88 47.99 94.94 48.65C96.02 49.31 97.26 49.64 98.66 49.64C100.08 49.64 101.29 49.28 102.29 48.56C103.29 47.82 104 46.89 104.42 45.77L108.08 47.48C107.7 48.54 107.07 49.52 106.19 50.42C105.31 51.3 104.23 52.01 102.95 52.55C101.69 53.09 100.26 53.36 98.66 53.36ZM111.062 53V30.29H114.992V53H111.062ZM118.621 53V36.68H122.551V53H118.621ZM118.621 34.85V30.65H122.551V34.85H118.621ZM133.92 53.36C132.24 53.36 130.77 52.98 129.51 52.22C128.25 51.46 127.27 50.43 126.57 49.13C125.87 47.83 125.52 46.39 125.52 44.81C125.52 43.17 125.87 41.72 126.57 40.46C127.29 39.18 128.26 38.17 129.48 37.43C130.72 36.69 132.1 36.32 133.62 36.32C134.9 36.32 136.02 36.53 136.98 36.95C137.96 37.37 138.79 37.95 139.47 38.69C140.15 39.43 140.67 40.28 141.03 41.24C141.39 42.18 141.57 43.2 141.57 44.3C141.57 44.58 141.55 44.87 141.51 45.17C141.49 45.47 141.44 45.73 141.36 45.95H128.76V42.95H139.14L137.28 44.36C137.46 43.44 137.41 42.62 137.13 41.9C136.87 41.18 136.43 40.61 135.81 40.19C135.21 39.77 134.48 39.56 133.62 39.56C132.8 39.56 132.07 39.77 131.43 40.19C130.79 40.59 130.3 41.19 129.96 41.99C129.64 42.77 129.52 43.72 129.6 44.84C129.52 45.84 129.65 46.73 129.99 47.51C130.35 48.27 130.87 48.86 131.55 49.28C132.25 49.7 133.05 49.91 133.95 49.91C134.85 49.91 135.61 49.72 136.23 49.34C136.87 48.96 137.37 48.45 137.73 47.81L140.91 49.37C140.59 50.15 140.09 50.84 139.41 51.44C138.73 52.04 137.92 52.51 136.98 52.85C136.06 53.19 135.04 53.36 133.92 53.36ZM144.549 53V36.68H148.239V39.89L147.939 39.32C148.319 38.34 148.939 37.6 149.799 37.1C150.679 36.58 151.699 36.32 152.859 36.32C154.059 36.32 155.119 36.58 156.039 37.1C156.979 37.62 157.709 38.35 158.229 39.29C158.749 40.21 159.009 41.28 159.009 42.5V53H155.079V43.43C155.079 42.71 154.939 42.09 154.659 41.57C154.379 41.05 153.989 40.65 153.489 40.37C153.009 40.07 152.439 39.92 151.779 39.92C151.139 39.92 150.569 40.07 150.069 40.37C149.569 40.65 149.179 41.05 148.899 41.57C148.619 42.09 148.479 42.71 148.479 43.43V53H144.549ZM169.772 53.18C167.932 53.18 166.502 52.68 165.482 51.68C164.482 50.66 163.982 49.23 163.982 47.39V40.19H161.162V36.68H161.462C162.262 36.68 162.882 36.47 163.322 36.05C163.762 35.63 163.982 35.02 163.982 34.22V32.96H167.912V36.68H171.662V40.19H167.912V47.18C167.912 47.72 168.002 48.18 168.182 48.56C168.382 48.94 168.682 49.23 169.082 49.43C169.502 49.63 170.032 49.73 170.672 49.73C170.812 49.73 170.972 49.72 171.152 49.7C171.352 49.68 171.542 49.66 171.722 49.64V53C171.442 53.04 171.122 53.08 170.762 53.12C170.402 53.16 170.072 53.18 169.772 53.18ZM174.725 53V36.68H178.655V53H174.725ZM174.725 34.85V30.65H178.655V34.85H174.725ZM184.173 53V40.19H181.293V36.68H184.173V36.14C184.173 34.9 184.423 33.85 184.923 32.99C185.443 32.11 186.163 31.44 187.083 30.98C188.003 30.52 189.093 30.29 190.353 30.29C190.593 30.29 190.853 30.31 191.133 30.35C191.433 30.37 191.683 30.4 191.883 30.44V33.83C191.683 33.79 191.493 33.77 191.313 33.77C191.153 33.75 191.003 33.74 190.863 33.74C189.983 33.74 189.303 33.94 188.823 34.34C188.343 34.72 188.103 35.32 188.103 36.14V36.68H191.733V40.19H188.103V53H184.173ZM196.451 59.6C196.011 59.6 195.581 59.56 195.161 59.48C194.741 59.42 194.361 59.3 194.021 59.12V55.85C194.281 55.91 194.591 55.97 194.951 56.03C195.331 56.09 195.681 56.12 196.001 56.12C196.901 56.12 197.551 55.91 197.951 55.49C198.371 55.09 198.741 54.55 199.061 53.87L200.141 51.35L200.081 54.65L192.971 36.68H197.201L202.181 49.94H200.681L205.631 36.68H209.891L202.781 54.65C202.361 55.69 201.851 56.58 201.251 57.32C200.651 58.06 199.951 58.62 199.151 59C198.371 59.4 197.471 59.6 196.451 59.6Z" fill="white"/>
<path d="M19.2519 40.3031L27.2271 24.1428C27.5458 23.4971 28.5237 23.8578 28.3467 24.5558L23.9583 41.8621C23.9227 42.0022 23.939 42.1505 24.0041 42.2797L26.2475 46.7292C26.3184 46.8699 26.4418 46.977 26.591 47.0275L46.8227 53.8703C47.1422 53.9783 47.3099 54.3284 47.1939 54.645L46.0108 57.8744C45.8999 58.1772 45.5695 58.3382 45.2627 58.2389L23.708 51.2633C23.5392 51.2087 23.4033 51.0822 23.3367 50.9178L19.2339 40.794C19.1696 40.6353 19.1761 40.4566 19.2519 40.3031Z" fill="white"/>
<path d="M46.7351 15.2105L63.8417 21.3539C64.5233 21.5987 64.2737 22.6092 63.5566 22.5081L45.1393 19.9121C45.0058 19.8933 44.8698 19.9195 44.7534 19.9866L40.083 22.678C39.9582 22.75 39.8638 22.8642 39.817 22.9998L32.8122 43.3154C32.7125 43.6045 32.4089 43.7714 32.1087 43.7022L28.7493 42.9282C28.4038 42.8486 28.2008 42.4915 28.3111 42.1574L35.3959 20.699C35.4463 20.5461 35.5569 20.4201 35.7025 20.3496L46.2669 15.235C46.4129 15.1643 46.5818 15.1555 46.7351 15.2105Z" fill="white"/>
<path d="M71.9298 41.3121L64.0955 57.5388C63.7829 58.1864 62.8002 57.8341 62.9706 57.1355L67.1852 39.8545C67.22 39.7117 67.201 39.5609 67.1317 39.431L64.7879 35.0382C64.7137 34.8993 64.5878 34.7949 64.4373 34.7476L44.0327 28.3367C43.7105 28.2355 43.5348 27.8895 43.6438 27.5708L44.755 24.3212C44.8592 24.0165 45.1863 23.8488 45.4956 23.9416L67.2273 30.4575C67.3975 30.5085 67.5364 30.6319 67.6068 30.7947L71.94 40.8147C72.009 40.9743 72.0053 41.1558 71.9298 41.3121Z" fill="white"/>
<path d="M45.0045 66.9558L27.0182 61.7732C26.3187 61.5717 26.5064 60.5439 27.2316 60.6048L46.4954 62.2212C46.6227 62.2318 46.75 62.2022 46.8588 62.1365L51.4828 59.3452C51.6061 59.2707 51.698 59.1547 51.7418 59.0182L58.2944 38.5844C58.3876 38.2936 58.6877 38.1206 58.9899 38.1834L62.3697 38.8863C62.7173 38.9585 62.9285 39.3109 62.8257 39.6468L56.2189 61.2236C56.1718 61.3773 56.064 61.5055 55.9198 61.5789L45.4479 66.9139C45.3113 66.9835 45.1526 66.9985 45.0045 66.9558Z" fill="white"/>
</svg>
